<svg xmlns="http://www.w3.org/2000/svg" viewBox="0 0 247.84 62.15"><defs><style>.cls-1{fill:#61a23d;}.cls-2{fill:#91908f;}</style></defs><title>Logo_ciudad</title><g id="Capa_2" data-name="Capa 2"><g id="Capa_1-2" data-name="Capa 1"><path class="cls-1" d="M82.64,34.36a1.57,1.57,0,0,0,1.41.73,1.85,1.85,0,0,0,1.41-.82L99.75,16a1.67,1.67,0,0,1,2.35-.23,1.7,1.7,0,0,1,.28,2.26l-3.19,4.09v0a1.55,1.55,0,0,0-.07,2.11h0l3.21,4.08L112.46,15.4l-4-5.16-.75-1a3.55,3.55,0,0,0-2.13-1.17H99.48A3.32,3.32,0,0,0,97,9.22L80,31Z"/><path class="cls-1" d="M81.92,23.18,77.85,18a1.66,1.66,0,1,1,2.78-1.8L84,20.48l4-5.12L83.38,9.45A3.08,3.08,0,0,0,80.62,8.1H75.14a3,3,0,0,0-2.51,1.1l-4.85,6.15L77.91,28.29Z"/><path class="cls-1" d="M97.58,27.62a1.7,1.7,0,0,0-1.37-.71,1.59,1.59,0,0,0-1.32.64L80.46,46.09a1.73,1.73,0,0,1-2.43.26,1.68,1.68,0,0,1-.21-2.28l3.24-4.16v0a1.54,1.54,0,0,0,.45-1.09,1.58,1.58,0,0,0-.38-1h0l-3.22-4.08-10.16,13,5.67,7.18,8.9,0L100.23,31Z"/><path class="cls-1" d="M98.33,38.8l4.09,5.27a1.63,1.63,0,0,1-.24,2.28,1.74,1.74,0,0,1-2.54-.53l-3.43-4.35-4,5.13L98,53.94l8.84,0,5.66-7.26-10.15-13Z"/><path class="cls-1" d="M112.4,33.22A2.18,2.18,0,1,1,114.56,31a2.17,2.17,0,0,1-2.16,2.18m0-6.24A4.06,4.06,0,1,0,116.51,31,4.09,4.09,0,0,0,112.4,27"/><path class="cls-1" d="M90.1,1.88a2.18,2.18,0,1,1-2.16,2.18A2.17,2.17,0,0,1,90.1,1.88m0,6.23a4.08,4.08,0,0,0,4.11-4,4.11,4.11,0,0,0-8.22,0A4.08,4.08,0,0,0,90.1,8.11"/><path class="cls-1" d="M90.1,55.91a2.18,2.18,0,1,1-2.16,2.18,2.17,2.17,0,0,1,2.16-2.18m0,6.24A4.06,4.06,0,1,0,86,58.09a4.09,4.09,0,0,0,4.11,4.06"/><path class="cls-1" d="M65.58,31a2.16,2.16,0,1,1,2.16,2.18A2.17,2.17,0,0,1,65.58,31m6.27,0a4.11,4.11,0,1,0-4.11,4.06A4.08,4.08,0,0,0,71.85,31"/><path class="cls-2" d="M47.21,4H0V35.51C0,52.79,23.59,58,23.59,58h0s23.59-5.21,23.59-22.49ZM46.06,5.18V35.51A16.42,16.42,0,0,1,42.62,45.6a26.27,26.27,0,0,1-7.74,6.62,45,45,0,0,1-11.28,4.6,45,45,0,0,1-11.22-4.58A26.32,26.32,0,0,1,4.6,45.62,16.4,16.4,0,0,1,1.15,35.51V5.18Z"/><path class="cls-2" d="M29.32,14.11V11.22h-3v2.7H25.19v-2.7H22.12v2.7H21v-2.7h-3v2.89l1.48,2.53a.6.6,0,0,1,.07.3l0,13.24h1.43l0-4.76a2.56,2.56,0,0,1,2.68-2.14,2.55,2.55,0,0,1,2.67,2.14l0,4.76h1.47V20.75h0v-3.8a.53.53,0,0,1,.09-.3Z"/><path class="cls-2" d="M18.34,30.48V26.1l-.53.31a.58.58,0,0,1-.62,0L16.55,26V26l0,1.69a.61.61,0,0,1-.22.45.76.76,0,0,1,.18.09,2.11,2.11,0,0,1,.66,2.23Z"/><path class="cls-2" d="M23.6,24.44c-.89,0-1.52.64-1.52,1l0,4.76h3l0-4.76c0-.34-.62-1-1.51-1"/><path class="cls-2" d="M5.9,30.48a5.29,5.29,0,0,1-.37-1.33,10.25,10.25,0,0,1-.12-1.79.6.6,0,0,1,.41-.54l1.27-.39-1.43-1a.61.61,0,0,1-.25-.48V23.33a.57.57,0,0,1,.32-.51l.56-.29V22l-.51-.21a.57.57,0,0,1-.37-.53V19.3A.58.58,0,0,1,6,18.72l1.79,0a6.64,6.64,0,0,1,.07-1.65,7.42,7.42,0,0,1,.77-1.87l-.1-.67a.59.59,0,0,1,.14-.46.57.57,0,0,1,.44-.2h1a.56.56,0,0,1,.31.09l2.37,1.5h1.08a.59.59,0,0,1,.42.17.58.58,0,0,1,.16.43l-.08,1.86a.63.63,0,0,1-.19.41h.72a.56.56,0,0,1,.42.18l.33.34.25-.19.42-.89a.57.57,0,0,1,.52-.33h1.54v-.33l-1.47-2.53a.6.6,0,0,1-.08-.29V10.64a.58.58,0,0,1,.58-.58H29.9a.58.58,0,0,1,.58.58v3.63a.51.51,0,0,1-.08.29L28.91,17.1v.32h1.53a.59.59,0,0,1,.52.33l.42.89.25.19.33-.34a.55.55,0,0,1,.41-.18h.73a.63.63,0,0,1-.19-.41L32.83,16a.58.58,0,0,1,.16-.43.59.59,0,0,1,.42-.17h1.08l2.36-1.5a.59.59,0,0,1,.31-.09h1a.57.57,0,0,1,.44.2.55.55,0,0,1,.13.46l-.09.67a7.1,7.1,0,0,1,.76,1.87,6.21,6.21,0,0,1,.08,1.65l1.79,0a.58.58,0,0,1,.58.58v1.94a.56.56,0,0,1-.36.53l-.51.21v.55l.56.29a.58.58,0,0,1,.31.51v1.61a.6.6,0,0,1-.24.48l-1.44,1,1.27.39a.59.59,0,0,1,.41.54,10.84,10.84,0,0,1-.11,1.79,5.29,5.29,0,0,1-.37,1.33h2.14V8.05H3.8V30.48Z"/><path class="cls-2" d="M30.74,28.25a.51.51,0,0,1,.18-.09.58.58,0,0,1-.22-.45l0-1.69V26L30,26.4a.6.6,0,0,1-.63,0l-.5-.3v4.37h1.15a2.11,2.11,0,0,1,.67-2.23"/><path class="cls-2" d="M38.45,42.48a.58.58,0,0,1-.58-.58V38.11a1.35,1.35,0,0,0-.44-.89,1.59,1.59,0,0,0-1.19-.47,1.54,1.54,0,0,0-1.5,1.39V41.9a.58.58,0,0,1-.58.58H30.71a.58.58,0,0,1-.58-.58V38.11a1.38,1.38,0,0,0-.43-.89,1.62,1.62,0,0,0-1.2-.47,1.52,1.52,0,0,0-1,.4l2.83,14.47c4-1.77,8.72-4.65,11.28-9.14Z"/><path class="cls-2" d="M29.22,52l-4-20.33H22L18,52a.19.19,0,0,1,0,.08A51.39,51.39,0,0,0,23.63,54a52.39,52.39,0,0,0,5.62-1.9l0-.1"/><path class="cls-2" d="M19.74,37.13a1.52,1.52,0,0,0-1-.38h0a1.63,1.63,0,0,0-1.16.47,1.38,1.38,0,0,0-.43.89V41.9a.57.57,0,0,1-.58.58H13.1a.59.59,0,0,1-.41-.17.6.6,0,0,1-.18-.42V38.14A1.52,1.52,0,0,0,11,36.75h0a1.65,1.65,0,0,0-1.16.47,1.38,1.38,0,0,0-.43.89V41.9a.57.57,0,0,1-.58.58H5.66C8.21,47,12.92,49.84,16.9,51.61Z"/><path class="cls-2" d="M43.44,31.65h-17l.83,4.26a2.8,2.8,0,0,1,3.26.48,2.49,2.49,0,0,1,.78,1.72v3.21h2.29V38.06a2.7,2.7,0,0,1,2.64-2.47,2.8,2.8,0,0,1,2,.8A2.49,2.49,0,0,1,39,38.11v3.21H42.2a14.12,14.12,0,0,0,1.27-5.9V31.64h0"/><path class="cls-2" d="M8.23,41.32V38.11A2.49,2.49,0,0,1,9,36.39a2.79,2.79,0,0,1,2-.8,2.7,2.7,0,0,1,2.64,2.47.07.07,0,0,1,0,0v3.21H16V38.11a2.49,2.49,0,0,1,.78-1.72A2.78,2.78,0,0,1,20,35.9l.83-4.25H3.8v3.76a14,14,0,0,0,1.27,5.91Z"/><path class="cls-2" d="M9.59,29.29h.95a1.06,1.06,0,0,1,.13.39c0,.08,0,.16,0,.23a2,2,0,0,1-.08.57H7.31c-.48-.32-.72-1.61-.74-2.67L8,27.36a.57.57,0,0,0,.41-.55v-.56a.56.56,0,0,0-.24-.47l-1.6-1.14v-.95l.55-.3a.55.55,0,0,0,.32-.51V21.59a.59.59,0,0,0-.36-.54l-.52-.21v-1l1.53,0,.72,1.19V22.7l-.49,1.57a.57.57,0,0,0,.08.52.59.59,0,0,0,.47.24h.44a.58.58,0,0,0,.57-.49,8.66,8.66,0,0,1,.31-1.33A6.07,6.07,0,0,1,11,22.08a.59.59,0,0,0,0-.76L9,19a6,6,0,0,1,0-1.74,6.4,6.4,0,0,1,.73-1.69.56.56,0,0,0,.08-.38l0-.21H9.9l2.36,1.5a.56.56,0,0,0,.31.09h.64l0,.86-.76.28a.57.57,0,0,0-.39.55v.6a.58.58,0,0,0,.58.57h2l.52.54a.58.58,0,0,0,.77,0,11.91,11.91,0,0,0,.95-.8l.32-.68h1.16V20.7s-2.12.72-2.3.81-.21.72-.19.88,0,.22.25.39a6,6,0,0,0,.8.56l.62-.59.82.05v2l-.77.47L15.1,23.56a.59.59,0,0,0-.79.12l-.38.49A.58.58,0,0,0,14,25l1.4,1.31,0,1.06-1.4.62a.57.57,0,0,0-.34.53v.24a.58.58,0,0,0,.58.58h1.68A1.24,1.24,0,0,1,16,30.48H12.07a1.14,1.14,0,0,1-.23-.65,1.62,1.62,0,0,0,0-.22,4.26,4.26,0,0,1,.09-1l.9-1.16a.63.63,0,0,0,.12-.33l0-.55a.59.59,0,0,0-.8-.57l-1.46.6a.58.58,0,0,0-.35.45l-.09.58-.84.26a.58.58,0,0,0-.42.55v.24a.58.58,0,0,0,.58.58"/><path class="cls-2" d="M37.63,29.29h-.94a1.06,1.06,0,0,0-.13.39,1.64,1.64,0,0,1,0,.23,3,3,0,0,0,.08.57h3.3c.48-.32.71-1.61.74-2.67l-1.45-.45a.58.58,0,0,1-.41-.55v-.56a.55.55,0,0,1,.25-.47l1.6-1.14v-.95l-.56-.3a.56.56,0,0,1-.31-.51V21.59a.58.58,0,0,1,.36-.54l.51-.21v-1l-1.52,0-.72,1.19V22.7l.5,1.57a.58.58,0,0,1-.55.76h-.44a.59.59,0,0,1-.58-.49A8.66,8.66,0,0,0,37,23.21a6,6,0,0,0-.77-1.13.59.59,0,0,1,0-.76l2-2.29a6.32,6.32,0,0,0,0-1.74,6.75,6.75,0,0,0-.73-1.69.56.56,0,0,1-.08-.38l0-.21h-.13L35,16.51a.56.56,0,0,1-.31.09H34l0,.86.76.28a.58.58,0,0,1,.39.55v.6a.58.58,0,0,1-.58.57h-2l-.51.54a.59.59,0,0,1-.78,0,11.89,11.89,0,0,1-.94-.8l-.32-.68H28.91V20.7s2.12.72,2.29.81.22.72.19.88,0,.22-.24.39a6.27,6.27,0,0,1-.81.56l-.61-.59-.82.05v2l.78.47,2.44-1.67a.58.58,0,0,1,.78.12l.39.49a.58.58,0,0,1-.07.78l-1.39,1.31,0,1.06,1.39.62a.58.58,0,0,1,.35.53v.24a.58.58,0,0,1-.58.58H31.34a1.24,1.24,0,0,0-.06,1.19h3.88a1.07,1.07,0,0,0,.22-.65c0-.07,0-.15,0-.22a4.26,4.26,0,0,0-.09-1l-.9-1.16a.55.55,0,0,1-.12-.33l0-.55a.56.56,0,0,1,.25-.5.57.57,0,0,1,.55-.07l1.46.6a.58.58,0,0,1,.35.45l.09.58.84.26a.57.57,0,0,1,.41.55v.24a.58.58,0,0,1-.58.58"/><path class="cls-2" d="M128.94,24.14v0A4,4,0,0,1,133,20,4.22,4.22,0,0,1,136,21l-.59.69a3.42,3.42,0,0,0-2.44-.92,3.14,3.14,0,0,0-3.06,3.3v0a3.1,3.1,0,0,0,3.18,3.34,3.77,3.77,0,0,0,2.32-.8v-2h-2.44v-.82h3.32v3.21A4.88,4.88,0,0,1,133,28.28a3.94,3.94,0,0,1-4.09-4.14"/><path class="cls-2" d="M146.49,24.14v0a3.19,3.19,0,0,0-3.17-3.32,3.16,3.16,0,0,0-3.15,3.3v0a3.2,3.2,0,0,0,3.17,3.32,3.16,3.16,0,0,0,3.15-3.3m-7.26,0v0a4.11,4.11,0,1,1,8.21,0v0a4.08,4.08,0,0,1-4.12,4.16,4,4,0,0,1-4.09-4.14"/><path class="cls-2" d="M154.12,24.49h-2.54v2.84h2.7c1.22,0,2-.55,2-1.44v0c0-.88-.73-1.38-2.14-1.38m1.69-2.27c0-.79-.63-1.31-1.78-1.31h-2.45v2.77H154c1.09,0,1.85-.49,1.85-1.43Zm-5.12-2.12h3.42a2.92,2.92,0,0,1,2.1.71,1.76,1.76,0,0,1,.52,1.29v0A1.93,1.93,0,0,1,155.46,24c.95.29,1.72.84,1.72,1.94v0c0,1.38-1.16,2.19-2.92,2.19h-3.57Z"/><rect class="cls-2" x="160.43" y="20.1" width="0.91" height="8.04"/><polygon class="cls-2" points="165.01 20.1 170.82 20.1 170.82 20.92 165.92 20.92 165.92 23.67 170.31 23.67 170.31 24.5 165.92 24.5 165.92 27.31 170.88 27.31 170.88 28.14 165.01 28.14 165.01 20.1"/><path class="cls-2" d="M177.27,24.2c1.21,0,2.07-.62,2.07-1.66v0c0-1-.76-1.58-2.06-1.58H174.8V24.2Zm-3.38-4.1h3.46a3.21,3.21,0,0,1,2.29.8,2.22,2.22,0,0,1,.62,1.59v0a2.35,2.35,0,0,1-2.18,2.34l2.47,3.29h-1.12L177.1,25h-2.3v3.13h-.91Z"/><polygon class="cls-2" points="183.53 20.1 184.38 20.1 189.45 26.54 189.45 20.1 190.33 20.1 190.33 28.14 189.61 28.14 184.41 21.54 184.41 28.14 183.53 28.14 183.53 20.1"/><path class="cls-2" d="M200.85,24.14v0a3.2,3.2,0,0,0-3.18-3.32,3.16,3.16,0,0,0-3.14,3.3v0a3.19,3.19,0,0,0,3.17,3.32,3.16,3.16,0,0,0,3.15-3.3m-7.27,0v0a4.11,4.11,0,1,1,8.21,0v0a4.11,4.11,0,1,1-8.21,0"/><path class="cls-2" d="M210.13,20.94V27.3H212a3.11,3.11,0,0,0,3.33-3.16v0A3.13,3.13,0,0,0,212,20.94Zm-.91-.84H212a4,4,0,0,1,4.27,4v0a4,4,0,0,1-4.27,4h-2.8Z"/><polygon class="cls-2" points="219.18 20.1 224.99 20.1 224.99 20.92 220.08 20.92 220.08 23.67 224.47 23.67 224.47 24.5 220.08 24.5 220.08 27.31 225.05 27.31 225.05 28.14 219.18 28.14 219.18 20.1"/><polygon class="cls-2" points="232.28 20.1 233.19 20.1 233.19 27.3 237.71 27.3 237.71 28.14 232.28 28.14 232.28 20.1"/><path class="cls-2" d="M245.53,25.19,243.7,21.1l-1.84,4.09ZM243.29,20h.85l3.66,8.1h-1l-1-2.12h-4.37l-1,2.12h-.93Z"/><path class="cls-2" d="M128.77,37.93v0A4.08,4.08,0,0,1,133,33.75,4.17,4.17,0,0,1,136.13,35L135,36.29a3,3,0,0,0-2.06-.91,2.38,2.38,0,0,0-2.33,2.51v0A2.39,2.39,0,0,0,133,40.44a2.9,2.9,0,0,0,2.11-.94l1.13,1.13a4.11,4.11,0,0,1-3.3,1.44,4.06,4.06,0,0,1-4.12-4.14"/><rect class="cls-2" x="137.65" y="33.89" width="1.77" height="8.04"/><path class="cls-2" d="M141.46,38.48V33.89h1.77v4.55c0,1.31.66,2,1.74,2s1.73-.66,1.73-1.93V33.89h1.77v4.54c0,2.43-1.37,3.63-3.53,3.63s-3.48-1.21-3.48-3.58"/><path class="cls-2" d="M153.62,40.33a2.29,2.29,0,0,0,2.43-2.4v0a2.31,2.31,0,0,0-2.43-2.42h-1.37v4.84Zm-3.14-6.44h3.14a4,4,0,0,1,4.28,4v0a4,4,0,0,1-4.28,4h-3.14Z"/><path class="cls-2" d="M163.68,38.57,162.61,36l-1.07,2.61Zm-1.86-4.74h1.63l3.44,8.1H165l-.73-1.8h-3.4l-.74,1.8h-1.8Z"/><path class="cls-2" d="M171.31,40.33a2.29,2.29,0,0,0,2.43-2.4v0a2.31,2.31,0,0,0-2.43-2.42H170v4.84Zm-3.13-6.44h3.13a4,4,0,0,1,4.28,4v0a4,4,0,0,1-4.28,4h-3.13Z"/><path class="cls-2" d="M183.86,40.33a2.29,2.29,0,0,0,2.43-2.4v0a2.31,2.31,0,0,0-2.43-2.42H182.5v4.84Zm-3.13-6.44h3.13a4,4,0,0,1,4.28,4v0a4,4,0,0,1-4.28,4h-3.13Z"/><polygon class="cls-2" points="189.82 33.89 195.88 33.89 195.88 35.46 191.57 35.46 191.57 37.09 195.37 37.09 195.37 38.67 191.57 38.67 191.57 40.36 195.94 40.36 195.94 41.93 189.82 41.93 189.82 33.89"/><polygon class="cls-2" points="201.08 33.89 202.99 33.89 205.1 37.29 207.22 33.89 209.12 33.89 209.12 41.93 207.36 41.93 207.36 36.68 205.1 40.12 205.06 40.12 202.81 36.72 202.81 41.93 201.08 41.93 201.08 33.89"/><path class="cls-2" d="M214.6,31.22l1.51.66-1.48,1.38H213.3Zm-3.37,2.67h6.07v1.57H213v1.63h3.79v1.58H213v1.69h4.37v1.57h-6.13Z"/><polygon class="cls-2" points="221.3 37.84 218.61 33.89 220.68 33.89 222.37 36.5 224.07 33.89 226.08 33.89 223.39 37.82 226.19 41.93 224.13 41.93 222.32 39.17 220.51 41.93 218.5 41.93 221.3 37.84"/><rect class="cls-2" x="227.55" y="33.89" width="1.77" height="8.04"/><path class="cls-2" d="M231,37.93v0a4.09,4.09,0,0,1,4.2-4.16A4.18,4.18,0,0,1,238.4,35l-1.13,1.3a3,3,0,0,0-2.05-.91,2.39,2.39,0,0,0-2.34,2.51v0a2.4,2.4,0,0,0,2.34,2.53,2.9,2.9,0,0,0,2.11-.94l1.13,1.13a4.11,4.11,0,0,1-3.3,1.44A4.06,4.06,0,0,1,231,37.93"/><path class="cls-2" d="M246,37.93v0a2.44,2.44,0,0,0-2.43-2.53,2.41,2.41,0,0,0-2.42,2.51v0a2.44,2.44,0,0,0,2.44,2.53A2.41,2.41,0,0,0,246,37.93m-6.7,0v0a4.16,4.16,0,0,1,4.29-4.16,4.12,4.12,0,0,1,4.26,4.14v0a4.28,4.28,0,0,1-8.55,0"/></g></g></svg>